<svg width="196" height="196" viewBox="0 0 196 196" fill="none" xmlns="http://www.w3.org/2000/svg">
<path d="M98 184.133C120.844 184.133 142.752 175.058 158.905 158.905C175.058 142.752 184.133 120.844 184.133 98C184.133 75.1562 175.058 53.248 158.905 37.0949C142.752 20.9419 120.844 11.8672 98 11.8672L98 98L98 184.133Z" fill="#801515"/>
<path d="M98 184.133C75.1562 184.133 53.2479 175.058 37.0949 158.905C20.9419 142.752 11.8672 120.844 11.8672 98C11.8672 75.1562 20.9419 53.2479 37.0949 37.0949C53.2479 20.9419 75.1562 11.8672 98 11.8672L98 98L98 184.133Z" fill="#D46A6A"/>
<path d="M67.9109 74.7793C77.7365 74.7793 85.2396 77.191 90.4203 82.0144C95.6904 86.8379 98.3254 94.0284 98.3254 103.586V146.461H86.1328V137.082C83.9891 140.387 80.9074 142.933 76.8879 144.719C72.9577 146.416 68.2682 147.265 62.8195 147.265C54.8698 147.265 48.4832 145.344 43.6598 141.504C38.9257 137.663 36.5586 132.616 36.5586 126.363C36.5586 120.111 38.8363 115.109 43.3918 111.357C47.9473 107.516 55.1824 105.596 65.0973 105.596H85.4629V103.05C85.4629 97.512 83.8551 93.2691 80.6395 90.3215C77.4238 87.3738 72.6897 85.9 66.4371 85.9C62.2389 85.9 58.1301 86.6146 54.1105 88.0437C50.091 89.3836 46.6967 91.2147 43.9277 93.5371L38.5684 83.8902C42.2306 80.9426 46.6074 78.7095 51.6988 77.191C56.7902 75.5832 62.1943 74.7793 67.9109 74.7793ZM64.9633 137.35C69.876 137.35 74.1189 136.278 77.6918 134.134C81.2647 131.901 83.8551 128.775 85.4629 124.755V114.841H65.6332C54.7358 114.841 49.2871 118.503 49.2871 125.827C49.2871 129.4 50.6716 132.214 53.4406 134.268C56.2096 136.323 60.0505 137.35 64.9633 137.35Z" fill="#801515"/>
<path d="M125.543 113.367L110.805 127.033V146.461H97.9426V47.0445H110.805V110.821L149.527 75.4492H165.069L135.19 104.792L168.016 146.461H152.206L125.543 113.367Z" fill="#D46A6A"/>
</svg>
